<mxfile host="65bd71144e">
    <diagram id="kYA-AafOAkzXnQ628_nR" name="Page-1">
        <mxGraphModel dx="632" dy="258" grid="1" gridSize="10" guides="1" tooltips="1" connect="1" arrows="1" fold="1" page="1" pageScale="1" pageWidth="827" pageHeight="1169" math="0" shadow="0">
            <root>
                <mxCell id="0"/>
                <mxCell id="1" parent="0"/>
                <mxCell id="2" value="[1, 2, 3, 4, 5]" style="rounded=0;whiteSpace=wrap;html=1;" vertex="1" parent="1">
                    <mxGeometry x="250" y="50" width="120" height="60" as="geometry"/>
                </mxCell>
                <mxCell id="4" style="edgeStyle=none;html=1;entryX=0;entryY=0.5;entryDx=0;entryDy=0;" edge="1" parent="1" source="3" target="2">
                    <mxGeometry relative="1" as="geometry"/>
                </mxCell>
                <mxCell id="3" value="arr&lt;br&gt;(global)" style="ellipse;whiteSpace=wrap;html=1;" vertex="1" parent="1">
                    <mxGeometry x="50" y="40" width="120" height="80" as="geometry"/>
                </mxCell>
                <mxCell id="7" style="edgeStyle=none;html=1;entryX=0.367;entryY=1.04;entryDx=0;entryDy=0;entryPerimeter=0;" edge="1" parent="1" source="5" target="2">
                    <mxGeometry relative="1" as="geometry"/>
                </mxCell>
                <mxCell id="5" value="arr&lt;br&gt;(local)" style="ellipse;whiteSpace=wrap;html=1;" vertex="1" parent="1">
                    <mxGeometry x="50" y="170" width="120" height="80" as="geometry"/>
                </mxCell>
            </root>
        </mxGraphModel>
    </diagram>
    <diagram id="tvyul3tFpq_RoDU58c4j" name="Page-2">
        <mxGraphModel dx="632" dy="1427" grid="1" gridSize="10" guides="1" tooltips="1" connect="1" arrows="1" fold="1" page="1" pageScale="1" pageWidth="827" pageHeight="1169" math="0" shadow="0">
            <root>
                <mxCell id="0"/>
                <mxCell id="1" parent="0"/>
                <mxCell id="Umnq6rdQStFEp42QC4BW-2" style="edgeStyle=none;html=1;entryX=0;entryY=0.5;entryDx=0;entryDy=0;" edge="1" parent="1" source="oemJzu0cM3FQfgtqUca6-1" target="Umnq6rdQStFEp42QC4BW-1">
                    <mxGeometry relative="1" as="geometry"/>
                </mxCell>
                <mxCell id="Umnq6rdQStFEp42QC4BW-4" style="edgeStyle=none;html=1;" edge="1" parent="1" source="oemJzu0cM3FQfgtqUca6-1" target="Umnq6rdQStFEp42QC4BW-3">
                    <mxGeometry relative="1" as="geometry"/>
                </mxCell>
                <mxCell id="Umnq6rdQStFEp42QC4BW-6" style="edgeStyle=none;html=1;entryX=0.25;entryY=1;entryDx=0;entryDy=0;" edge="1" parent="1" source="oemJzu0cM3FQfgtqUca6-1" target="Umnq6rdQStFEp42QC4BW-5">
                    <mxGeometry relative="1" as="geometry"/>
                </mxCell>
                <mxCell id="oemJzu0cM3FQfgtqUca6-1" value="[1, 2, 3, 4, 5]" style="rounded=0;whiteSpace=wrap;html=1;" vertex="1" parent="1">
                    <mxGeometry x="250" y="50" width="120" height="60" as="geometry"/>
                </mxCell>
                <mxCell id="oemJzu0cM3FQfgtqUca6-2" style="edgeStyle=none;html=1;entryX=0;entryY=0.5;entryDx=0;entryDy=0;" edge="1" parent="1" target="oemJzu0cM3FQfgtqUca6-1">
                    <mxGeometry relative="1" as="geometry">
                        <mxPoint x="170" y="80" as="sourcePoint"/>
                    </mxGeometry>
                </mxCell>
                <mxCell id="oemJzu0cM3FQfgtqUca6-3" style="edgeStyle=none;html=1;" edge="1" parent="1" source="oemJzu0cM3FQfgtqUca6-4" target="oemJzu0cM3FQfgtqUca6-5">
                    <mxGeometry relative="1" as="geometry"/>
                </mxCell>
                <mxCell id="oemJzu0cM3FQfgtqUca6-4" value="arr&lt;br&gt;(local)" style="ellipse;whiteSpace=wrap;html=1;" vertex="1" parent="1">
                    <mxGeometry x="50" y="170" width="120" height="80" as="geometry"/>
                </mxCell>
                <mxCell id="oemJzu0cM3FQfgtqUca6-5" value="[2, 2, 3, 4, 5]" style="rounded=0;whiteSpace=wrap;html=1;" vertex="1" parent="1">
                    <mxGeometry x="300" y="190" width="120" height="60" as="geometry"/>
                </mxCell>
                <mxCell id="SxZazcHWuBaVHrXw6Hhw-1" value="arr&lt;br&gt;(global)" style="ellipse;whiteSpace=wrap;html=1;" vertex="1" parent="1">
                    <mxGeometry x="50" y="40" width="120" height="80" as="geometry"/>
                </mxCell>
                <mxCell id="Umnq6rdQStFEp42QC4BW-1" value="1" style="rounded=0;whiteSpace=wrap;html=1;" vertex="1" parent="1">
                    <mxGeometry x="430" y="50" width="50" height="60" as="geometry"/>
                </mxCell>
                <mxCell id="Umnq6rdQStFEp42QC4BW-3" value="2" style="rounded=0;whiteSpace=wrap;html=1;" vertex="1" parent="1">
                    <mxGeometry x="389" y="-30" width="50" height="60" as="geometry"/>
                </mxCell>
                <mxCell id="Umnq6rdQStFEp42QC4BW-5" value="5" style="rounded=0;whiteSpace=wrap;html=1;" vertex="1" parent="1">
                    <mxGeometry x="320" y="-70" width="50" height="60" as="geometry"/>
                </mxCell>
            </root>
        </mxGraphModel>
    </diagram>
</mxfile>